# xmcd
#
# Track frame offsets:
#	150
#	16955
#	38246
#	53628
#	77444
#	99448
#	121693
#	138343
#	156045
#	176182
#	195533
#	213139
#	234526
#	252782
#	272455
#	287165
#
# Disc length: 4050 seconds
#
# Revision: 0
# Processed by: cddbd v1.5.1PL0 Copyright (c) Steve Scherf et al.
# Submitted via: EasyCDDAExtractor 8.2.4.1
#
DISCID=cb0fd010
DTITLE=Various Artist - КРАСНЫЙ
DYEAR=1900
DGENRE=Pop
TTITLE0=Boris Moiseev - Prosti menia, mama
TTITLE1=Boris Moiseev - Tango-kokain
TTITLE2=Boris Moiseev - Padshiy angel
TTITLE3=Boris Moiseev - Tol'ko liubi
TTITLE4=Boris Moiseev - Nauchi menia liubit'
TTITLE5=Boris Moiseev - CHernyy lebed'
TTITLE6=Boris Moiseev - Aty-baty
TTITLE7=Boris Moiseev - Uchitel'nica po liubvi
TTITLE8=Boris Moiseev - Kogda zabudesh' ty menia
TTITLE9=Sarah Connor - Living To Love You
TTITLE10=Joe Le Taxi - 06 Joe Le Taxi
TTITLE11=И.Аллегрова - 06_Войди в меня
TTITLE12=Катя Лель - Я люблю тебя
TTITLE13=Валерий Леонтьев - Фотомодель
TTITLE14=Дмитрий Маликов - С чистого листа (rmx)
TTITLE15=Верка Сердючка - Тук тук тук
EXTD=
EXTT0=
EXTT1=
EXTT2=
EXTT3=
EXTT4=
EXTT5=
EXTT6=
EXTT7=
EXTT8=
EXTT9=
EXTT10=
EXTT11=
EXTT12=
EXTT13=
EXTT14=
EXTT15=
PLAYORDER=
